<svg width="6156" height="1627" xmlns="http://www.w3.org/2000/svg" xmlns:xlink="http://www.w3.org/1999/xlink" xml:space="preserve" overflow="hidden"><g transform="translate(-2662 -5564)"><g><rect x="3938.5" y="5884.5" width="782" height="341" stroke="#042433" stroke-width="6.875" stroke-linecap="butt" stroke-linejoin="miter" stroke-miterlimit="8" stroke-opacity="1" fill="none"/><text fill="#000000" fill-opacity="1" font-family="Times New Roman,Times New Roman_MSFontService,sans-serif" font-style="normal" font-variant="normal" font-weight="400" font-stretch="normal" font-size="83" text-anchor="start" direction="ltr" writing-mode="lr-tb" unicode-bidi="normal" text-decoration="none" transform="matrix(1 0 0 1 4003.78 6085)">REDC3329_comb</text><path d="M3724.5 5955.06 3915.77 5955.06 3915.77 5961.94 3724.5 5961.94ZM3911.19 5944.75 3938.69 5958.5 3911.19 5972.25Z" fill="#000000" fill-rule="nonzero" fill-opacity="1"/><path d="M3724.5 6148.06 3915.77 6148.06 3915.77 6154.94 3724.5 6154.94ZM3911.19 6137.75 3938.69 6151.5 3911.19 6165.25Z" fill="#000000" fill-rule="nonzero" fill-opacity="1"/><text fill="#000000" fill-opacity="1" font-family="Times New Roman,Times New Roman_MSFontService,sans-serif" font-style="normal" font-variant="normal" font-weight="400" font-stretch="normal" font-size="83" text-anchor="start" direction="ltr" writing-mode="lr-tb" unicode-bidi="normal" text-decoration="none" transform="matrix(1 0 0 1 3342.14 5967)">R2_MOD</text><rect x="3938.5" y="6532.5" width="782" height="342" stroke="#042433" stroke-width="6.875" stroke-linecap="butt" stroke-linejoin="miter" stroke-miterlimit="8" stroke-opacity="1" fill="none"/><text fill="#000000" fill-opacity="1" font-family="Times New Roman,Times New Roman_MSFontService,sans-serif" font-style="normal" font-variant="normal" font-weight="400" font-stretch="normal" font-size="83" text-anchor="start" direction="ltr" writing-mode="lr-tb" unicode-bidi="normal" text-decoration="none" transform="matrix(1 0 0 1 4003.78 6734)">REDC3329_comb</text><path d="M3724.5 6604.06 3915.77 6604.06 3915.77 6610.94 3724.5 6610.94ZM3911.19 6593.75 3938.69 6607.5 3911.19 6621.25Z" fill="#000000" fill-rule="nonzero" fill-opacity="1"/><path d="M3724.5 6797.06 3915.77 6797.06 3915.77 6803.94 3724.5 6803.94ZM3911.19 6786.75 3938.69 6800.5 3911.19 6814.25Z" fill="#000000" fill-rule="nonzero" fill-opacity="1"/><text fill="#000000" fill-opacity="1" font-family="Times New Roman,Times New Roman_MSFontService,sans-serif" font-style="normal" font-variant="normal" font-weight="400" font-stretch="normal" font-size="83" text-anchor="start" direction="ltr" writing-mode="lr-tb" unicode-bidi="normal" text-decoration="none" transform="matrix(1 0 0 1 3359 6808)">R2_MOD</text><rect x="4875.5" y="5884.5" width="240" height="990" stroke="#042433" stroke-width="6.875" stroke-linecap="butt" stroke-linejoin="miter" stroke-miterlimit="8" stroke-opacity="1" fill="none"/><text fill="#000000" fill-opacity="1" font-family="Times New Roman,Times New Roman_MSFontService,sans-serif" font-style="normal" font-variant="normal" font-weight="400" font-stretch="normal" font-size="83" text-anchor="start" direction="ltr" writing-mode="lr-tb" unicode-bidi="normal" text-decoration="none" transform="matrix(1 0 0 1 4928.65 6409)">Reg</text><path d="M4720.5 6052.06 4852.64 6052.06 4852.64 6058.94 4720.5 6058.94ZM4848.05 6041.75 4875.55 6055.5 4848.05 6069.25Z" fill="#000000" fill-rule="nonzero" fill-opacity="1"/><path d="M4720.5 6709.06 4852.64 6709.06 4852.64 6715.94 4720.5 6715.94ZM4848.05 6698.75 4875.55 6712.5 4848.05 6726.25Z" fill="#000000" fill-rule="nonzero" fill-opacity="1"/><rect x="5331.5" y="6206.5" width="782" height="341" stroke="#042433" stroke-width="6.875" stroke-linecap="butt" stroke-linejoin="miter" stroke-miterlimit="8" stroke-opacity="1" fill="none"/><text fill="#000000" fill-opacity="1" font-family="Times New Roman,Times New Roman_MSFontService,sans-serif" font-style="normal" font-variant="normal" font-weight="400" font-stretch="normal" font-size="83" text-anchor="start" direction="ltr" writing-mode="lr-tb" unicode-bidi="normal" text-decoration="none" transform="matrix(1 0 0 1 5396.86 6407)">REDC3329_comb</text><path d="M5117.5 6286.06 5308.77 6286.06 5308.77 6292.94 5117.5 6292.94ZM5304.19 6275.75 5331.69 6289.5 5304.19 6303.25Z" fill="#000000" fill-rule="nonzero" fill-opacity="1"/><path d="M5117.5 6461.06 5308.77 6461.06 5308.77 6467.94 5117.5 6467.94ZM5304.19 6450.75 5331.69 6464.5 5304.19 6478.25Z" fill="#000000" fill-rule="nonzero" fill-opacity="1"/><rect x="6781.5" y="6206.5" width="782" height="341" stroke="#042433" stroke-width="6.875" stroke-linecap="butt" stroke-linejoin="miter" stroke-miterlimit="8" stroke-opacity="1" fill="none"/><text fill="#000000" fill-opacity="1" font-family="Times New Roman,Times New Roman_MSFontService,sans-serif" font-style="normal" font-variant="normal" font-weight="400" font-stretch="normal" font-size="83" text-anchor="start" direction="ltr" writing-mode="lr-tb" unicode-bidi="normal" text-decoration="none" transform="matrix(1 0 0 1 6846.96 6407)">REDC3329_comb</text><path d="M6567.5 6286.06 6758.77 6286.06 6758.77 6292.94 6567.5 6292.94ZM6754.19 6275.75 6781.69 6289.5 6754.19 6303.25Z" fill="#000000" fill-rule="nonzero" fill-opacity="1"/><path d="M6665.5 6461.06 6759.1 6461.06 6759.1 6467.94 6665.5 6467.94ZM6754.51 6450.75 6782.01 6464.5 6754.51 6478.25Z" fill="#000000" fill-rule="nonzero" fill-opacity="1"/><text fill="#000000" fill-opacity="1" font-family="Times New Roman,Times New Roman_MSFontService,sans-serif" font-style="normal" font-variant="normal" font-weight="400" font-stretch="normal" font-size="83" text-anchor="start" direction="ltr" writing-mode="lr-tb" unicode-bidi="normal" text-decoration="none" transform="matrix(1 0 0 1 6595.34 6496)">1</text><rect x="6328.5" y="6206.5" width="239" height="341" stroke="#042433" stroke-width="6.875" stroke-linecap="butt" stroke-linejoin="miter" stroke-miterlimit="8" stroke-opacity="1" fill="none"/><text fill="#000000" fill-opacity="1" font-family="Times New Roman,Times New Roman_MSFontService,sans-serif" font-style="normal" font-variant="normal" font-weight="400" font-stretch="normal" font-size="83" text-anchor="start" direction="ltr" writing-mode="lr-tb" unicode-bidi="normal" text-decoration="none" transform="matrix(1 0 0 1 6380.87 6407)">Reg</text><path d="M6113.5 6373.06 6304.77 6373.06 6304.77 6379.94 6113.5 6379.94ZM6300.19 6362.75 6327.69 6376.5 6300.19 6390.25Z" fill="#000000" fill-rule="nonzero" fill-opacity="1"/><rect x="7778.5" y="6198.5" width="239" height="342" stroke="#042433" stroke-width="6.875" stroke-linecap="butt" stroke-linejoin="miter" stroke-miterlimit="8" stroke-opacity="1" fill="none"/><text fill="#000000" fill-opacity="1" font-family="Times New Roman,Times New Roman_MSFontService,sans-serif" font-style="normal" font-variant="normal" font-weight="400" font-stretch="normal" font-size="83" text-anchor="start" direction="ltr" writing-mode="lr-tb" unicode-bidi="normal" text-decoration="none" transform="matrix(1 0 0 1 7830.97 6400)">Reg</text><path d="M7563.5 6373.06 7754.77 6373.06 7754.77 6379.94 7563.5 6379.94ZM7750.19 6362.75 7777.69 6376.5 7750.19 6390.25Z" fill="#000000" fill-rule="nonzero" fill-opacity="1"/><rect x="3482.5" y="6086.5" width="240" height="585" stroke="#042433" stroke-width="6.875" stroke-linecap="butt" stroke-linejoin="miter" stroke-miterlimit="8" stroke-opacity="1" fill="none"/><text fill="#000000" fill-opacity="1" font-family="Times New Roman,Times New Roman_MSFontService,sans-serif" font-style="normal" font-variant="normal" font-weight="400" font-stretch="normal" font-size="83" text-anchor="start" direction="ltr" writing-mode="lr-tb" unicode-bidi="normal" text-decoration="none" transform="matrix(1 0 0 1 3535.57 6409)">Reg</text><rect x="3142" y="5572" width="5046" height="1614" stroke="#042433" stroke-width="10.3125" stroke-linecap="butt" stroke-linejoin="miter" stroke-miterlimit="8" stroke-opacity="1" fill="none"/><path d="M8017.5 6376.06 8371.73 6376.06 8371.73 6382.94 8017.5 6382.94ZM8367.15 6365.75 8394.65 6379.5 8367.15 6393.25Z" fill="#000000" fill-rule="nonzero" fill-opacity="1"/><path d="M2823.5 6222.06 3459.62 6222.06 3459.62 6228.94 2823.5 6228.94ZM3455.03 6211.75 3482.53 6225.5 3455.03 6239.25Z" fill="#000000" fill-rule="nonzero" fill-opacity="1"/><path d="M2823.5 6529.06 3459.62 6529.06 3459.62 6535.94 2823.5 6535.94ZM3455.03 6518.75 3482.53 6532.5 3455.03 6546.25Z" fill="#000000" fill-rule="nonzero" fill-opacity="1"/><text fill="#000000" fill-opacity="1" font-family="Times New Roman,Times New Roman_MSFontService,sans-serif" font-style="normal" font-variant="normal" font-weight="400" font-stretch="normal" font-size="83" text-anchor="start" direction="ltr" writing-mode="lr-tb" unicode-bidi="normal" text-decoration="none" transform="matrix(1 0 0 1 2717.38 6228)">A</text><text fill="#000000" fill-opacity="1" font-family="Times New Roman,Times New Roman_MSFontService,sans-serif" font-style="normal" font-variant="normal" font-weight="400" font-stretch="normal" font-size="83" text-anchor="start" direction="ltr" writing-mode="lr-tb" unicode-bidi="normal" text-decoration="none" transform="matrix(1 0 0 1 2717.38 6511)">B</text><text fill="#000000" fill-opacity="1" font-family="Times New Roman,Times New Roman_MSFontService,sans-serif" font-style="normal" font-variant="normal" font-weight="400" font-stretch="normal" font-size="83" text-anchor="start" direction="ltr" writing-mode="lr-tb" unicode-bidi="normal" text-decoration="none" transform="matrix(1 0 0 1 8438.77 6385)">OUTPUT</text><text fill="#000000" fill-opacity="1" font-family="Aptos,Aptos_MSFontService,sans-serif" font-style="normal" font-variant="normal" font-weight="400" font-stretch="normal" font-size="110" text-anchor="start" direction="ltr" writing-mode="lr-tb" unicode-bidi="normal" text-decoration="none" transform="matrix(1 0 0 1 6919.98 5822)">REDC3329_Pipeline</text></g></g></svg>